<?xml version="1.0" encoding="UTF-8" standalone="no"?>
<svg
   xmlns:dc="http://purl.org/dc/elements/1.1/"
   xmlns:cc="http://creativecommons.org/ns#"
   xmlns:rdf="http://www.w3.org/1999/02/22-rdf-syntax-ns#"
   xmlns:svg="http://www.w3.org/2000/svg"
   xmlns="http://www.w3.org/2000/svg"
   width="500"
   height="300"
   viewBox="0 0 500 300"
   version="1.1"
   xml:space="preserve"
   style="clip-rule:evenodd;fill-rule:evenodd;stroke-linejoin:round;stroke-miterlimit:2"
   id="svg148"><metadata
   id="metadata154"><rdf:RDF><cc:Work
       rdf:about=""><dc:format>image/svg+xml</dc:format><dc:type
         rdf:resource="http://purl.org/dc/dcmitype/StillImage" /><dc:title></dc:title></cc:Work></rdf:RDF></metadata><defs
   id="defs152">
        
        
        
        
        
        
        
        
        
        
        
        
        
        
        
        
        
        
        
        
        
        
        
        
        
        
        
        
        
        
        
        
        
        
        
        
        
        
        
        
        
        
        
        
        
        
        
        
        
        
        
        
        
        
        
        
        
        
        
        
        
        
        
        
        
        
        
        
        
        
        
        
    </defs>
    
<path
   d="m 418.9755,232.3014 v 41.6965 h 19.07581 v -41.6965 z m -51.00961,0 v 41.6965 h 45.82802 v -16.2191 h -25.21963 v -3.07334 h 11.84077 l 9.23086,-2.33027 v -0.78136 h -21.07163 v -4.11786 h 25.21963 V 232.3014 Z m -34.62049,30.63976 v 11.05674 h 20.58094 v -11.05674 h 11.05399 V 242.33009 H 353.92634 V 232.3014 H 333.3454 v 10.02869 h -10.05879 v 20.61107 z m -57.96761,-6.19044 v 17.24718 h 44.79166 v -17.00045 l -28.29846,-8.47964 h 28.29846 V 232.3014 h -44.79166 v 15.96965 l 26.88375,8.47967 z M 196.58244,232.3014 v 41.6965 H 215.894 v -21.93257 l 7.45433,21.93257 h 21.36228 l 7.22674,-21.74064 v 21.74064 h 20.32051 v -41.6965 h -20.07377 l -10.55227,30.51093 -10.56327,-30.51093 z m -81.05712,0 v 41.6965 h 19.31158 v -21.93257 l 7.45432,21.93257 h 21.35954 l 7.22677,-21.74064 v 21.74064 h 20.32323 v -41.6965 h -20.07649 l -10.54954,30.51093 -10.56326,-30.51093 z m -52.813521,0 h 33.455324 l 14.607057,41.6965 H 91.544846 l -8.47966,-19.89285 V 273.9979 H 62.711799 Z m -52.459844,0 v 41.6965 h 20.353372 v -19.0347 h 2.832035 l 6.69216,19.0347 H 59.356121 L 53.220502,255.45393 V 232.3014 Z m 433.954185,0 v 41.6965 h 19.31432 v -21.11553 h 1.79024 l 6.6921,21.11553 h 20.0738 v -41.6965 h -3.86013 v 26.89752 l -9.5242,-26.89752 z"
   style="clip-rule:evenodd;fill:#000000;fill-rule:evenodd;stroke-width:2.74156;stroke-linejoin:round;stroke-miterlimit:2"
   id="path144-0" /><path
   d="m 246.28329,197.6812 v 12.02824 h -42.09528 v -36.08116 h 12.02705 V 197.6812 Z M 258.31035,17.275392 h 42.09529 v 48.10941 h 48.107 V 107.48009 H 336.4868 V 77.411855 H 288.37737 V 29.303644 h -30.06702 z m 0,180.405808 h 30.06702 v -48.10582 h 48.10943 v -30.06944 h 12.02584 v 42.09409 h -48.107 v 48.10941 H 258.31035 Z M 216.21506,29.303644 V 53.357749 H 204.18801 V 17.275392 h 42.09528 V 29.303644 Z M 156.0798,65.384802 h 108.24468 v 48.107008 l 16.56525,48.10822 h -55.65228 l -9.02239,-26.20132 v 26.20132 H 156.0798 v -42.09409 h 12.02705 v 30.06944 h 36.08116 v -36.08357 h 16.51123 l 12.42336,36.08357 h 31.59818 L 252.29622,113.49181 V 77.411855 H 168.10685 V 107.48009 H 156.0798 Z"
   style="fill:#000000;stroke-width:1.20091"
   id="path144" /></svg>
